<?xml version="1.0" encoding="utf-8"?>
<!-- Generator: Adobe Illustrator 16.0.0, SVG Export Plug-In . SVG Version: 6.00 Build 0)  -->
<!DOCTYPE svg PUBLIC "-//W3C//DTD SVG 1.1//EN" "http://www.w3.org/Graphics/SVG/1.1/DTD/svg11.dtd">
<svg version="1.1" id="Calque_1" xmlns="http://www.w3.org/2000/svg" xmlns:xlink="http://www.w3.org/1999/xlink" x="0px" y="0px"
	 width="200px" height="200px" viewBox="0 0 200 200" enable-background="new 0 0 200 200" xml:space="preserve">
<path fill="#231F20" d="M168.04,53.961"/>
<line fill="none" x1="219.197" y1="881.809" x2="219.197" y2="-358.036"/>
<line fill="none" x1="219.197" y1="881.809" x2="219.197" y2="-358.036"/>
<line fill="none" x1="219.197" y1="881.809" x2="219.197" y2="-358.036"/>
<line fill="none" x1="219.197" y1="881.809" x2="219.197" y2="-358.036"/>
<line fill="none" x1="219.197" y1="881.809" x2="219.197" y2="-358.036"/>
<line fill="none" x1="219.197" y1="-358.041" x2="219.197" y2="881.809"/>
<g>
	<polygon fill="#231F20" points="127.293,48.666 121.772,65.552 142.932,65.552 142.932,122.172 163.393,65.552 179.119,65.552 
		184.553,48.666 	"/>
	<g>
		<polygon fill="#231F20" points="45.557,74.535 38.142,48.666 16.289,48.666 35.375,105.843 		"/>
		<polygon fill="#231F20" points="78.118,48.666 60.653,48.666 36.749,122.172 53.996,122.172 64.838,89.5 		"/>
		<polygon fill="#231F20" points="99.848,48.666 86.736,94.756 78.532,67.947 69.478,95.787 78.293,122.172 97.266,122.172 
			121.7,48.666 		"/>
	</g>
</g>
<g>
	<path d="M24.205,141.025c0.055,0.188,0.105,0.473,0.149,0.855c0.066,0.569,0.1,1.012,0.1,1.328c0,0.1-0.011,0.207-0.033,0.323
		l-0.083,0.024l-0.598-0.041l-0.1-0.017c-0.244-0.73-0.487-1.226-0.73-1.485c-0.42-0.443-0.916-0.664-1.486-0.664
		c-0.542,0-0.973,0.143-1.291,0.428c-0.318,0.285-0.477,0.638-0.477,1.059c0,0.354,0.157,0.695,0.473,1.022
		c0.31,0.326,0.968,0.639,1.976,0.937c0.338,0.1,0.746,0.26,1.225,0.479c0.479,0.221,0.843,0.461,1.092,0.722
		c0.332,0.343,0.56,0.674,0.684,0.992c0.124,0.318,0.187,0.716,0.187,1.191c0,0.521-0.097,1.032-0.291,1.536
		c-0.105,0.266-0.274,0.518-0.506,0.756c-0.166,0.166-0.423,0.361-0.772,0.585c-0.349,0.225-0.709,0.387-1.083,0.486
		c-0.373,0.099-0.854,0.148-1.44,0.148c-0.387,0-0.85-0.055-1.386-0.166l-0.996-0.29c-0.277-0.077-0.451-0.146-0.523-0.208
		c-0.028-0.021-0.053-0.074-0.075-0.157v-0.091c0-0.062-0.014-0.44-0.042-1.138c-0.011-0.359-0.017-0.614-0.017-0.764v-0.315
		l0.772-0.017c0.265,0.616,0.437,0.988,0.514,1.116c0.171,0.283,0.36,0.513,0.568,0.688c0.207,0.175,0.454,0.313,0.742,0.416
		c0.287,0.103,0.599,0.154,0.936,0.154c0.298,0,0.627-0.063,0.986-0.191c0.359-0.127,0.648-0.336,0.866-0.627
		c0.218-0.291,0.327-0.603,0.327-0.936c0-0.41-0.191-0.789-0.573-1.139c-0.232-0.216-0.858-0.504-1.876-0.864
		s-1.724-0.682-2.117-0.964s-0.703-0.66-0.93-1.133c-0.227-0.474-0.34-0.93-0.34-1.367c0-0.88,0.315-1.627,0.946-2.241
		c0.631-0.615,1.561-0.923,2.789-0.923c0.266,0,0.659,0.048,1.179,0.142C23.267,140.732,23.685,140.849,24.205,141.025z"/>
	<path d="M26.355,145.239c0.653-0.276,1.125-0.547,1.416-0.813c0.29-0.265,0.602-0.696,0.934-1.293h0.465
		c0.05,0.144,0.075,0.296,0.075,0.456c0,0.288-0.003,0.513-0.008,0.673l-0.025,0.489c0,0.028,0.003,0.092,0.008,0.191l0.191,0.008
		c0.028,0,0.288-0.011,0.78-0.033c0.039,0,0.246-0.005,0.623-0.016c0.033,0.147,0.05,0.279,0.05,0.395
		c0,0.126-0.02,0.273-0.058,0.443c-0.183,0.033-0.321,0.05-0.415,0.05c-0.044,0-0.133-0.011-0.266-0.033h-0.432l-0.149-0.008
		l-0.398,0.024l-0.017,3.171c-0.005,0.614,0.007,0.998,0.038,1.149c0.03,0.152,0.095,0.298,0.195,0.437
		c0.127,0.061,0.269,0.091,0.423,0.091c0.149,0,0.26-0.014,0.332-0.041c0.072-0.028,0.194-0.108,0.365-0.24
		c0.033-0.028,0.086-0.066,0.158-0.116c0.133,0.104,0.241,0.21,0.324,0.314l0.033,0.1c-0.194,0.305-0.466,0.544-0.817,0.718
		c-0.352,0.175-0.727,0.262-1.125,0.262c-0.515,0-0.933-0.163-1.253-0.489s-0.481-0.831-0.481-1.517l0.033-1.459v-2.362
		l-0.257-0.017l-0.598,0.017l-0.108-0.041c-0.033-0.05-0.05-0.097-0.05-0.14C26.338,145.576,26.344,145.453,26.355,145.239z"/>
	<path d="M38.374,145.482c0.354,0.344,0.619,0.738,0.793,1.184c0.174,0.445,0.262,0.864,0.262,1.258
		c0,0.741-0.114,1.339-0.341,1.793c-0.343,0.686-0.806,1.192-1.388,1.519s-1.257,0.489-2.027,0.489c-0.864,0-1.597-0.193-2.198-0.58
		c-0.601-0.388-1.03-0.828-1.288-1.32c-0.257-0.492-0.386-1.104-0.386-1.834c0-0.371,0.061-0.743,0.183-1.117
		c0.122-0.373,0.29-0.698,0.503-0.975c0.213-0.277,0.447-0.51,0.702-0.697c0.371-0.266,0.744-0.456,1.118-0.569
		s0.827-0.17,1.358-0.17C36.822,144.462,37.725,144.803,38.374,145.482z M33.834,148.352c0.05,0.687,0.086,1.083,0.108,1.188
		c0.072,0.371,0.186,0.689,0.34,0.956c0.105,0.172,0.279,0.324,0.523,0.457s0.534,0.199,0.872,0.199
		c0.404,0,0.744-0.129,1.021-0.387s0.476-0.66,0.598-1.209c0.078-0.36,0.116-0.95,0.116-1.771c0-1.009-0.166-1.722-0.498-2.141
		c-0.332-0.418-0.769-0.628-1.312-0.628c-0.426,0-0.779,0.12-1.058,0.358c-0.28,0.238-0.475,0.59-0.585,1.055
		C33.887,146.73,33.845,147.37,33.834,148.352z"/>
	<path d="M40.358,151.115c0.072-0.063,0.166-0.108,0.282-0.137c0.282-0.062,0.551-0.172,0.805-0.332
		c0.05-0.133,0.075-0.58,0.075-1.343c0-1.397-0.03-2.342-0.091-2.834c-0.011-0.088-0.055-0.165-0.133-0.231
		c-0.138-0.072-0.327-0.136-0.564-0.191c-0.111-0.027-0.177-0.088-0.199-0.182l-0.025-0.308c0.41-0.056,0.78-0.195,1.112-0.419
		c0.332-0.225,0.581-0.453,0.747-0.686c0.088-0.127,0.166-0.224,0.232-0.29l0.581-0.017c0.028,0.127,0.042,0.232,0.042,0.315
		c0,0.061-0.003,0.136-0.008,0.224c-0.005,0.194-0.008,0.354-0.008,0.482c0,0.061,0.003,0.29,0.008,0.688
		c0.227-0.388,0.393-0.647,0.498-0.78c0.05-0.061,0.196-0.196,0.44-0.406c0.188-0.139,0.401-0.208,0.639-0.208
		c0.293,0,0.548,0.1,0.764,0.299s0.324,0.429,0.324,0.688c0,0.261-0.082,0.494-0.245,0.702c-0.163,0.207-0.38,0.312-0.651,0.312
		c-0.238,0-0.487-0.1-0.747-0.299c-0.155-0.122-0.279-0.184-0.374-0.184l-0.058,0.009c-0.116,0.039-0.221,0.144-0.315,0.314
		c-0.155,0.275-0.232,0.563-0.232,0.86l0.017,0.224c0.022,0.408,0.039,1.364,0.05,2.87c0.017,0.138,0.069,0.276,0.158,0.414
		c0.1,0.077,0.201,0.132,0.303,0.165c0.102,0.033,0.281,0.062,0.535,0.084s0.41,0.057,0.465,0.104s0.083,0.125,0.083,0.231
		c0,0.062-0.017,0.144-0.05,0.244h-0.78l-1.585-0.075c-0.398,0-0.761,0.018-1.087,0.051h-0.141c-0.039,0-0.327,0.014-0.863,0.041
		c-0.017-0.092-0.025-0.16-0.025-0.206C40.333,151.267,40.342,151.201,40.358,151.115z"/>
	<path d="M46.468,144.843c0.194-0.032,0.354-0.049,0.481-0.049c0.066,0,0.141,0.003,0.224,0.009
		c0.503,0.033,0.913,0.049,1.229,0.049h0.432l1.179-0.074c0.044,0.033,0.083,0.069,0.116,0.107c-0.017,0.244-0.03,0.398-0.042,0.465
		c-0.083,0.018-0.146,0.028-0.191,0.033c-0.127,0.018-0.221,0.032-0.282,0.046c-0.061,0.015-0.127,0.026-0.199,0.038
		c-0.083,0.021-0.13,0.061-0.141,0.116c0.033,0.133,0.066,0.243,0.1,0.332l0.398,0.815c0.315,0.776,0.639,1.491,0.971,2.146
		l0.465,0.956c0.033-0.066,0.246-0.612,0.639-1.638c0.47-1.215,0.725-1.899,0.764-2.055c0.022-0.083,0.033-0.155,0.033-0.216
		c0-0.056-0.017-0.147-0.05-0.274c-0.122-0.089-0.221-0.146-0.299-0.17c-0.078-0.025-0.257-0.054-0.54-0.087l-0.266-0.066
		l-0.025-0.114c-0.005-0.055-0.008-0.096-0.008-0.123c0-0.043,0.008-0.114,0.025-0.212c0.166-0.011,0.285-0.017,0.357-0.017
		l0.672,0.042l0.448,0.016c0.188,0,0.515-0.027,0.979-0.082c0.288-0.033,0.503-0.053,0.647-0.059
		c0.011,0.137,0.017,0.24,0.017,0.312c0,0.032-0.003,0.082-0.008,0.147c-0.1,0.049-0.21,0.088-0.332,0.115
		c-0.199,0.049-0.374,0.096-0.523,0.14c-0.08,0.066-0.133,0.122-0.159,0.166c-0.095,0.211-0.286,0.671-0.574,1.38l-0.599,1.604
		l-1.389,3.307l-0.956,2.193c-0.21,0.421-0.457,0.783-0.739,1.088c-0.105,0.115-0.227,0.204-0.365,0.266
		c-0.227,0.088-0.484,0.133-0.772,0.133c-0.028,0-0.18-0.02-0.457-0.059c-0.227-0.056-0.423-0.174-0.589-0.357
		c-0.116-0.133-0.174-0.273-0.174-0.423c0-0.305,0.13-0.587,0.39-0.847c0.232-0.144,0.404-0.216,0.515-0.216
		c0.249,0,0.54,0.13,0.872,0.39c0.155,0.128,0.279,0.191,0.374,0.191s0.169-0.053,0.224-0.158c0.481-0.935,0.792-1.599,0.93-1.992
		l-1.531-3.382c-0.574-1.357-1.013-2.308-1.316-2.851c-0.156-0.277-0.267-0.44-0.331-0.49c-0.064-0.05-0.164-0.095-0.297-0.133
		c-0.073-0.017-0.157-0.051-0.251-0.1C46.515,145.076,46.49,144.957,46.468,144.843z"/>
	<path d="M66.007,145.482c0.354,0.344,0.619,0.738,0.793,1.184c0.174,0.445,0.262,0.864,0.262,1.258
		c0,0.741-0.114,1.339-0.341,1.793c-0.343,0.686-0.806,1.192-1.388,1.519s-1.257,0.489-2.027,0.489c-0.864,0-1.597-0.193-2.198-0.58
		c-0.601-0.388-1.03-0.828-1.288-1.32c-0.257-0.492-0.386-1.104-0.386-1.834c0-0.371,0.061-0.743,0.183-1.117
		c0.122-0.373,0.29-0.698,0.503-0.975c0.213-0.277,0.447-0.51,0.702-0.697c0.371-0.266,0.744-0.456,1.118-0.569
		s0.827-0.17,1.358-0.17C64.456,144.462,65.358,144.803,66.007,145.482z M61.467,148.352c0.05,0.687,0.086,1.083,0.108,1.188
		c0.072,0.371,0.186,0.689,0.34,0.956c0.105,0.172,0.279,0.324,0.523,0.457s0.534,0.199,0.872,0.199
		c0.404,0,0.744-0.129,1.021-0.387s0.476-0.66,0.598-1.209c0.078-0.36,0.116-0.95,0.116-1.771c0-1.009-0.166-1.722-0.498-2.141
		c-0.332-0.418-0.769-0.628-1.312-0.628c-0.426,0-0.779,0.12-1.058,0.358c-0.28,0.238-0.475,0.59-0.585,1.055
		C61.52,146.73,61.479,147.37,61.467,148.352z"/>
	<path d="M68.125,151.534l-0.008-0.465c0.088-0.044,0.286-0.109,0.594-0.195c0.307-0.086,0.477-0.147,0.51-0.187
		c0.061-0.061,0.091-0.146,0.091-0.258v-0.182c0.022-0.516,0.033-0.803,0.033-0.863c0-0.051-0.003-0.119-0.008-0.208l-0.008-0.1
		l0.008-0.108v-0.074l-0.05-1.428l-0.008-1.594l-0.017-0.158c-0.1,0-0.246-0.005-0.44-0.016h-0.523
		c-0.033-0.005-0.08-0.014-0.141-0.027c-0.005-0.15-0.008-0.271-0.008-0.36c0-0.156,0.039-0.281,0.116-0.376
		c0.166,0,0.493-0.02,0.979-0.059c0.017-0.658,0.123-1.277,0.319-1.855c0.197-0.578,0.444-1.041,0.743-1.391l0.216-0.24
		c0.365-0.31,0.701-0.527,1.009-0.651c0.307-0.125,0.671-0.187,1.091-0.187c0.41,0,0.749,0.066,1.017,0.199
		c0.268,0.133,0.454,0.303,0.556,0.51c0.103,0.208,0.154,0.4,0.154,0.577c0,0.222-0.091,0.425-0.274,0.61s-0.385,0.277-0.606,0.277
		c-0.166,0-0.329-0.055-0.49-0.166c-0.111-0.082-0.245-0.256-0.402-0.519c-0.158-0.263-0.281-0.43-0.37-0.502
		c-0.088-0.066-0.205-0.1-0.349-0.1c-0.171,0-0.321,0.066-0.448,0.199s-0.216,0.323-0.266,0.573
		c-0.05,0.248-0.075,0.746-0.075,1.494l-0.008,0.912l0.008,0.241l0.157,0.009l0.982-0.025c0.049,0,0.126,0.008,0.231,0.025
		c0.078,0.066,0.116,0.121,0.116,0.166l-0.017,0.157v0.224c0,0.033-0.008,0.098-0.025,0.191c-0.05,0.027-0.107,0.041-0.174,0.041
		h-0.074l-0.628,0.018c-0.105,0-0.185-0.006-0.24-0.018h-0.074c-0.056,0-0.138,0.013-0.249,0.037l-0.005,0.406
		c0,0.039,0.002,0.1,0.005,0.183c0.007,0.315,0.011,0.531,0.011,0.647l-0.005,1.219l0.014,0.888l-0.008,0.714
		c-0.011,0.503,0.039,0.808,0.148,0.912c0.16,0.16,0.492,0.269,0.999,0.324c0.093,0.005,0.179,0.024,0.256,0.058
		c0.022,0.133,0.033,0.219,0.033,0.257c0,0.062-0.011,0.147-0.033,0.258h-0.597c-0.05,0-0.373-0.02-0.969-0.059l-0.447-0.033
		c-0.431,0-0.765,0.011-1.002,0.03C69.348,151.504,68.898,151.52,68.125,151.534z"/>
	<path d="M80.094,150.979c0.044-0.022,0.105-0.036,0.183-0.042c0.327-0.022,0.586-0.08,0.78-0.174
		c0.039-0.017,0.062-0.053,0.071-0.108c0.008-0.055,0.023-0.558,0.045-1.508v-0.48l0.008-0.854l-0.008-0.887v-0.199
		c0-0.26-0.06-0.452-0.178-0.576c-0.119-0.124-0.431-0.258-0.934-0.402v-0.34c0.105-0.027,0.229-0.059,0.374-0.092
		c0.509-0.104,0.93-0.254,1.262-0.447c0.254-0.15,0.506-0.374,0.755-0.673h0.457v0.133l0.025,0.664l-0.008,0.308l0.017,0.148
		c0.526-0.414,0.964-0.688,1.316-0.821s0.754-0.199,1.208-0.199c0.437,0,0.859,0.094,1.266,0.282s0.746,0.504,1.017,0.946
		c0.393-0.379,0.722-0.646,0.987-0.8c0.183-0.104,0.433-0.196,0.751-0.276c0.318-0.079,0.618-0.119,0.9-0.119
		c0.769,0,1.377,0.232,1.826,0.696c0.448,0.47,0.672,1.105,0.672,1.906v1.318c0,0.271-0.008,0.738-0.025,1.401v0.638
		c0,0.111,0.033,0.219,0.1,0.324c0.216,0.092,0.401,0.151,0.556,0.178c0.111,0.017,0.216,0.055,0.315,0.114
		c0.011,0.102,0.025,0.186,0.042,0.253l-0.008,0.168c-0.155,0.028-0.266,0.042-0.332,0.042c-0.044,0-0.179-0.013-0.402-0.037
		c-0.225-0.025-0.508-0.038-0.851-0.038c-0.835,0-1.5,0.025-1.992,0.075c-0.039-0.138-0.058-0.248-0.058-0.331l0.008-0.115
		c0.072-0.038,0.31-0.133,0.714-0.284c0.072-0.072,0.113-0.136,0.125-0.19c0.028-0.139,0.042-0.434,0.042-0.887l-0.042-2.338
		c-0.005-0.392-0.036-0.717-0.091-0.974s-0.137-0.458-0.245-0.604c-0.108-0.146-0.253-0.267-0.436-0.361
		c-0.183-0.094-0.374-0.141-0.573-0.141c-0.31,0-0.625,0.087-0.946,0.26s-0.606,0.435-0.855,0.786l-0.017,0.241l0.025,1.063
		l-0.017,0.871v0.83l-0.008,0.738c0,0.365,0.036,0.582,0.108,0.648c0.111,0.104,0.382,0.18,0.813,0.224l0.257,0.084
		c0.044,0.13,0.066,0.23,0.066,0.304c0,0.039-0.011,0.106-0.033,0.201l-0.24-0.008h-0.332l-0.174-0.008
		c-0.392-0.039-0.798-0.062-1.218-0.066l-0.886-0.018c-0.216,0-0.588,0.025-1.119,0.075l-0.148-0.025l-0.017-0.497
		c0.166-0.047,0.465-0.085,0.897-0.117c0.027-0.005,0.063-0.016,0.108-0.033c0.061-0.071,0.096-0.133,0.107-0.182
		c0.027-0.111,0.041-0.335,0.041-0.673l-0.008-1.685l0.025-0.449c0-0.863-0.031-1.396-0.092-1.602
		c-0.078-0.266-0.24-0.482-0.487-0.651c-0.247-0.169-0.542-0.253-0.886-0.253c-0.449,0-0.84,0.106-1.173,0.319
		s-0.524,0.402-0.574,0.568c-0.005,0.066-0.008,0.116-0.008,0.149l0.017,0.083v0.083c0,0.05-0.017,0.127-0.05,0.232l0.025,2.383
		l0.008,1.244c0,0.045,0.008,0.117,0.025,0.217l0.041,0.124c0.154,0.049,0.285,0.083,0.395,0.104
		c0.203,0.043,0.356,0.092,0.461,0.146c0.016,0.094,0.024,0.16,0.024,0.199c0,0.071-0.022,0.174-0.066,0.306
		c-0.088,0.006-0.152,0.009-0.191,0.009c-0.061,0-0.337-0.022-0.83-0.067l-0.905-0.008c-0.432,0-0.955,0.028-1.569,0.084
		l-0.241-0.009c-0.011-0.088-0.022-0.19-0.033-0.307C80.053,151.145,80.066,151.072,80.094,150.979z"/>
	<path d="M93.633,144.843c0.194-0.032,0.354-0.049,0.481-0.049c0.066,0,0.141,0.003,0.224,0.009
		c0.503,0.033,0.913,0.049,1.229,0.049h0.432l1.179-0.074c0.044,0.033,0.083,0.069,0.116,0.107c-0.017,0.244-0.03,0.398-0.042,0.465
		c-0.083,0.018-0.146,0.028-0.191,0.033c-0.127,0.018-0.221,0.032-0.282,0.046c-0.061,0.015-0.127,0.026-0.199,0.038
		c-0.083,0.021-0.13,0.061-0.141,0.116c0.033,0.133,0.066,0.243,0.1,0.332l0.398,0.815c0.315,0.776,0.639,1.491,0.971,2.146
		l0.465,0.956c0.033-0.066,0.246-0.612,0.639-1.638c0.47-1.215,0.725-1.899,0.764-2.055c0.022-0.083,0.033-0.155,0.033-0.216
		c0-0.056-0.017-0.147-0.05-0.274c-0.122-0.089-0.221-0.146-0.299-0.17c-0.078-0.025-0.257-0.054-0.54-0.087l-0.266-0.066
		l-0.025-0.114c-0.005-0.055-0.008-0.096-0.008-0.123c0-0.043,0.008-0.114,0.025-0.212c0.166-0.011,0.285-0.017,0.357-0.017
		l0.672,0.042l0.448,0.016c0.188,0,0.515-0.027,0.979-0.082c0.287-0.033,0.504-0.053,0.647-0.059
		c0.011,0.137,0.017,0.24,0.017,0.312c0,0.032-0.002,0.082-0.008,0.147c-0.1,0.049-0.211,0.088-0.332,0.115
		c-0.199,0.049-0.374,0.096-0.523,0.14c-0.08,0.066-0.133,0.122-0.159,0.166c-0.095,0.211-0.286,0.671-0.574,1.38l-0.599,1.604
		l-1.389,3.307l-0.956,2.193c-0.21,0.421-0.457,0.783-0.739,1.088c-0.105,0.115-0.227,0.204-0.365,0.266
		c-0.227,0.088-0.484,0.133-0.772,0.133c-0.028,0-0.18-0.02-0.457-0.059c-0.227-0.056-0.423-0.174-0.589-0.357
		c-0.116-0.133-0.174-0.273-0.174-0.423c0-0.305,0.13-0.587,0.39-0.847c0.232-0.144,0.404-0.216,0.515-0.216
		c0.249,0,0.54,0.13,0.872,0.39c0.155,0.128,0.279,0.191,0.374,0.191s0.169-0.053,0.224-0.158c0.481-0.935,0.792-1.599,0.93-1.992
		l-1.531-3.382c-0.574-1.357-1.013-2.308-1.316-2.851c-0.156-0.277-0.267-0.44-0.331-0.49c-0.064-0.05-0.164-0.095-0.297-0.133
		c-0.073-0.017-0.157-0.051-0.251-0.1C93.68,145.076,93.655,144.957,93.633,144.843z"/>
	<path d="M106.001,141.391l-0.042-0.515c0.066-0.033,0.119-0.05,0.157-0.05c0.46,0.03,0.919,0.053,1.379,0.067
		c0.188,0.005,0.31,0.007,0.365,0.007c0.199,0,0.432-0.008,0.697-0.024l1.078-0.05c0.039,0.022,0.064,0.053,0.075,0.092
		l-0.066,0.381c-0.105,0.066-0.208,0.125-0.308,0.175c-0.221,0.122-0.332,0.222-0.332,0.299c0,0.072,0.028,0.163,0.084,0.274
		c0.033,0.066,0.077,0.18,0.133,0.34c0.094,0.271,0.359,0.93,0.797,1.976l2.149,5.014c0.282-0.525,0.722-1.411,1.319-2.656
		l-1.213-2.922c-0.226-0.548-0.423-0.999-0.589-1.353c-0.056-0.117-0.104-0.228-0.143-0.332c-0.033-0.056-0.077-0.138-0.133-0.245
		c-0.056-0.108-0.143-0.196-0.259-0.266c-0.117-0.069-0.396-0.156-0.834-0.262l0.033-0.498c0.177,0,0.42,0.009,0.73,0.024
		c0.447,0.033,0.735,0.051,0.863,0.051l1.162-0.018l1.436-0.082c0.027,0.005,0.066,0.008,0.116,0.008l0.009,0.282v0.1
		c0,0.033-0.012,0.077-0.033,0.133c-0.095,0.027-0.244,0.053-0.449,0.075c-0.144,0.011-0.244,0.041-0.303,0.091
		c-0.058,0.05-0.087,0.108-0.087,0.175c0,0.166,0.058,0.367,0.175,0.605c0.049,0.105,0.115,0.266,0.199,0.481
		c0.276,0.708,0.489,1.226,0.639,1.552l0.581-1.203c0.266-0.554,0.44-0.96,0.522-1.221c0.018-0.055,0.025-0.102,0.025-0.141v-0.05
		c-0.066-0.072-0.127-0.122-0.183-0.149c-0.139-0.061-0.374-0.133-0.706-0.216c-0.011-0.105-0.016-0.186-0.016-0.241
		c0-0.061,0.008-0.151,0.024-0.273c0.183,0,0.7,0.014,1.552,0.041c0.504,0.018,0.825,0.025,0.963,0.025
		c0.117,0,0.219-0.001,0.308-0.004s0.183-0.004,0.282-0.004l0.017,0.066l-0.024,0.373l-0.018,0.041
		c-0.598,0.172-0.954,0.297-1.07,0.374s-0.227,0.205-0.332,0.382c-0.276,0.487-0.789,1.505-1.535,3.055l0.033,0.074l0.531,1.229
		l0.904,2.134c0.094,0.21,0.16,0.365,0.199,0.465l1.046-2.739l1.461-3.727l0.232-0.697c0.011-0.045,0.017-0.089,0.017-0.133
		l-0.025-0.142c-0.188-0.061-0.341-0.106-0.46-0.137s-0.223-0.073-0.312-0.129c-0.017-0.183-0.025-0.296-0.025-0.341
		c0-0.044,0.02-0.102,0.059-0.174l0.133-0.017l1.245,0.05l0.821-0.05l0.175,0.024c0.017,0.1,0.024,0.188,0.024,0.266
		c0,0.1-0.019,0.181-0.058,0.241c-0.027,0.039-0.083,0.072-0.166,0.1c-0.228,0.11-0.383,0.216-0.466,0.315
		c-0.061,0.066-0.146,0.252-0.257,0.557c-0.481,1.295-0.979,2.542-1.49,3.743s-1.273,3.112-2.286,5.735l-0.829,0.009
		c-0.055-0.199-0.116-0.368-0.183-0.507c-0.16-0.359-0.254-0.586-0.282-0.68l-0.922-2.125c-0.149-0.354-0.271-0.617-0.365-0.789
		c-0.017-0.027-0.038-0.066-0.066-0.116c-0.011,0.027-0.304,0.582-0.879,1.664s-0.996,1.928-1.263,2.536l-0.848,0.008
		c-0.199-0.608-0.589-1.543-1.17-2.805l-2.681-6.275c-0.282-0.637-0.484-1.016-0.606-1.138c-0.044-0.044-0.127-0.091-0.249-0.142
		C106.147,141.449,106.083,141.424,106.001,141.391z"/>
	<path d="M127.449,145.482c0.354,0.344,0.619,0.738,0.794,1.184s0.262,0.864,0.262,1.258c0,0.741-0.113,1.339-0.341,1.793
		c-0.344,0.686-0.806,1.192-1.388,1.519s-1.258,0.489-2.027,0.489c-0.864,0-1.597-0.193-2.198-0.58
		c-0.601-0.388-1.03-0.828-1.288-1.32s-0.386-1.104-0.386-1.834c0-0.371,0.061-0.743,0.183-1.117
		c0.121-0.373,0.289-0.698,0.502-0.975c0.214-0.277,0.447-0.51,0.703-0.697c0.371-0.266,0.743-0.456,1.117-0.569
		s0.827-0.17,1.358-0.17C125.898,144.462,126.802,144.803,127.449,145.482z M122.91,148.352c0.05,0.687,0.086,1.083,0.107,1.188
		c0.072,0.371,0.186,0.689,0.341,0.956c0.105,0.172,0.279,0.324,0.522,0.457c0.244,0.133,0.534,0.199,0.872,0.199
		c0.404,0,0.744-0.129,1.021-0.387c0.277-0.258,0.477-0.66,0.598-1.209c0.078-0.36,0.117-0.95,0.117-1.771
		c0-1.009-0.166-1.722-0.498-2.141c-0.332-0.418-0.77-0.628-1.313-0.628c-0.426,0-0.778,0.12-1.058,0.358s-0.475,0.59-0.585,1.055
		C122.963,146.73,122.921,147.37,122.91,148.352z"/>
	<path d="M129.436,151.115c0.071-0.063,0.166-0.108,0.281-0.137c0.283-0.062,0.551-0.172,0.806-0.332
		c0.05-0.133,0.075-0.58,0.075-1.343c0-1.397-0.031-2.342-0.092-2.834c-0.011-0.088-0.056-0.165-0.133-0.231
		c-0.139-0.072-0.326-0.136-0.564-0.191c-0.11-0.027-0.177-0.088-0.199-0.182l-0.025-0.308c0.41-0.056,0.781-0.195,1.113-0.419
		c0.332-0.225,0.58-0.453,0.746-0.686c0.089-0.127,0.166-0.224,0.232-0.29l0.582-0.017c0.027,0.127,0.041,0.232,0.041,0.315
		c0,0.061-0.003,0.136-0.008,0.224c-0.006,0.194-0.009,0.354-0.009,0.482c0,0.061,0.003,0.29,0.009,0.688
		c0.227-0.388,0.393-0.647,0.498-0.78c0.049-0.061,0.196-0.196,0.439-0.406c0.188-0.139,0.401-0.208,0.639-0.208
		c0.294,0,0.549,0.1,0.764,0.299c0.217,0.199,0.324,0.429,0.324,0.688c0,0.261-0.082,0.494-0.245,0.702
		c-0.163,0.207-0.38,0.312-0.651,0.312c-0.238,0-0.487-0.1-0.747-0.299c-0.155-0.122-0.279-0.184-0.374-0.184l-0.058,0.009
		c-0.116,0.039-0.222,0.144-0.315,0.314c-0.155,0.275-0.232,0.563-0.232,0.86l0.017,0.224c0.022,0.408,0.039,1.364,0.05,2.87
		c0.017,0.138,0.069,0.276,0.158,0.414c0.1,0.077,0.2,0.132,0.303,0.165s0.28,0.062,0.535,0.084s0.409,0.057,0.465,0.104
		s0.083,0.125,0.083,0.231c0,0.062-0.017,0.144-0.05,0.244h-0.78l-1.585-0.075c-0.398,0-0.762,0.018-1.088,0.051h-0.141
		c-0.039,0-0.327,0.014-0.863,0.041c-0.018-0.092-0.025-0.16-0.025-0.206C129.41,151.267,129.418,151.201,129.436,151.115z"/>
	<path d="M135.437,151.163c0.122-0.084,0.283-0.138,0.484-0.16c0.384-0.044,0.604-0.103,0.659-0.174
		c0.111-0.145,0.167-0.438,0.167-0.88v-2.338l-0.016-0.556v-1.676l-0.018-1.915v-0.332c0-0.453-0.036-0.788-0.108-1.004
		c-0.195-0.115-0.404-0.174-0.627-0.174c-0.134,0-0.26-0.014-0.376-0.041c-0.018-0.139-0.025-0.241-0.025-0.308
		c0-0.044,0.006-0.094,0.017-0.149c0.437-0.05,0.89-0.162,1.359-0.336c0.47-0.175,0.829-0.354,1.077-0.535l0.23-0.009
		c0.049,0,0.12,0.003,0.214,0.009c0.032,1.913,0.05,3.224,0.05,3.931c0,0.21-0.006,0.379-0.018,0.506v0.05l0.018,0.158v3.674
		l0.016,1.211v0.199c0,0.238,0.039,0.406,0.116,0.506c0.065,0.072,0.206,0.116,0.42,0.133c0.116,0.011,0.344,0.039,0.685,0.083
		c0.027,0.116,0.041,0.21,0.041,0.282c0,0.056-0.005,0.133-0.016,0.232l-0.656-0.03c-0.365-0.024-0.824-0.037-1.378-0.037
		l-0.308-0.007c-0.314,0-0.771,0.024-1.369,0.074h-0.605L135.437,151.163z"/>
	<path d="M141.993,145.168c0.271-0.188,0.532-0.324,0.784-0.407s0.607-0.146,1.067-0.19h0.465c0.603,0,1.181,0.207,1.734,0.622
		l0.017-0.199l-0.009-0.556l0.033-0.889c0-0.936-0.071-1.527-0.215-1.776c-0.084-0.149-0.229-0.229-0.437-0.241
		c-0.207-0.011-0.375-0.047-0.502-0.107v-0.398c0.105-0.033,0.241-0.051,0.407-0.054s0.489-0.06,0.971-0.171l0.282-0.058l0.821-0.19
		c0.166-0.039,0.269-0.059,0.308-0.059c0.027,0,0.072,0.006,0.133,0.017c0.033,0.116,0.05,0.202,0.05,0.257l-0.008,0.125v0.149
		c0,0.155,0.008,0.567,0.024,1.237v0.447l0.009,0.241l-0.009,0.415l0.024,0.863l-0.016,0.506c-0.012,0.222-0.018,0.57-0.018,1.047
		c0,0.077,0.003,0.146,0.009,0.207v0.307c-0.006,0.089-0.009,0.155-0.009,0.199c0,0.084,0.009,0.202,0.025,0.357v0.457l-0.008,0.174
		c-0.012,0.16-0.018,0.382-0.018,0.664c0,0.288,0.006,0.548,0.018,0.78c0.005,0.094,0.008,0.18,0.008,0.257v0.623
		c0,0.199,0.006,0.438,0.017,0.714c0.1,0.061,0.343,0.105,0.73,0.133c0.122,0.006,0.229,0.02,0.323,0.042
		c0.028,0.082,0.042,0.144,0.042,0.182c0,0.051-0.02,0.125-0.058,0.225c-0.228,0.056-0.465,0.097-0.715,0.125
		c-0.758,0.094-1.297,0.227-1.618,0.398c-0.155,0.088-0.263,0.133-0.323,0.133c-0.062,0-0.131-0.006-0.208-0.018
		c0.006-0.1,0.009-0.164,0.009-0.191c0-0.38-0.009-0.622-0.025-0.729c-0.083,0.045-0.186,0.104-0.307,0.177
		c-0.371,0.223-0.709,0.378-1.014,0.465c-0.304,0.086-0.652,0.13-1.045,0.13c-0.697,0-1.254-0.133-1.669-0.398
		c-0.614-0.388-1.039-0.853-1.274-1.395c-0.235-0.543-0.353-1.138-0.353-1.785C140.449,146.913,140.964,145.959,141.993,145.168z
		 M144.55,150.654c0.116,0.011,0.216,0.017,0.299,0.017c0.183,0,0.378-0.038,0.585-0.114c0.208-0.076,0.428-0.188,0.66-0.334
		c0.006-0.183,0.009-0.296,0.009-0.34c0-1.755-0.025-2.812-0.075-3.172c-0.066-0.48-0.249-0.852-0.548-1.111
		c-0.299-0.261-0.661-0.391-1.088-0.391c-0.243,0-0.474,0.044-0.692,0.133c-0.219,0.088-0.397,0.215-0.536,0.381
		c-0.204,0.243-0.359,0.52-0.465,0.829c-0.144,0.431-0.215,0.834-0.215,1.21c0,0.9,0.19,1.59,0.572,2.068
		C143.438,150.308,143.936,150.582,144.55,150.654z"/>
	<path d="M154.329,140.32h0.514c0.039,0.062,0.066,0.106,0.084,0.134c0.154,0.27,0.273,0.445,0.356,0.53
		c0.072,0.016,0.451,0.024,1.138,0.024c0.426,0,0.805-0.002,1.137-0.006l0.166-0.019l1.004-0.009l1.877,0.009h2.564l0.49-0.067
		c0.071-0.051,0.148-0.186,0.232-0.403c0.021-0.051,0.052-0.121,0.091-0.211l0.365-0.008c0.056,0,0.139,0.003,0.249,0.008
		c0.006,0.383,0.008,0.958,0.008,1.727l0.009,0.739l-0.009,0.423c0,0.145-0.011,0.269-0.033,0.374
		c-0.227,0.072-0.426,0.116-0.598,0.133c-0.144-0.216-0.301-0.528-0.47-0.938c-0.169-0.409-0.276-0.636-0.32-0.68
		c-0.066-0.072-0.145-0.119-0.233-0.142c-0.133-0.027-0.721-0.042-1.764-0.042c-0.155,0-0.35,0.012-0.582,0.033
		c-0.028,0.217-0.042,0.394-0.042,0.531l0.009,1.113v2.439l0.024,2.632l-0.009,1.079c0,0.382,0.034,0.67,0.101,0.863
		c0.089,0.039,0.253,0.074,0.492,0.107c0.044,0.006,0.25,0.051,0.617,0.133c0.167,0.039,0.314,0.084,0.442,0.133
		c0.027,0.199,0.041,0.321,0.041,0.365c0,0.051-0.008,0.122-0.024,0.217c-0.122,0.005-0.222,0.008-0.299,0.008
		c-0.57,0-1.055-0.021-1.453-0.063c-0.398-0.041-1.12-0.063-2.166-0.063c-0.166,0-0.653,0.033-1.461,0.1
		c-0.315,0.022-0.521,0.033-0.614,0.033c-0.006-0.082-0.011-0.146-0.017-0.19l-0.009-0.19v-0.066
		c0.122-0.161,0.352-0.28,0.689-0.357c0.575-0.139,0.974-0.263,1.195-0.373c0.056-0.105,0.089-0.244,0.1-0.416
		c0.039-0.664,0.059-1.721,0.059-3.17l-0.042-3.139c0-0.863-0.017-1.386-0.05-1.568c-0.011-0.05-0.03-0.087-0.059-0.112
		c-0.027-0.024-0.066-0.04-0.115-0.046c-0.172-0.021-0.73-0.033-1.678-0.033c-0.52,0-0.868,0.051-1.045,0.15
		c-0.238,0.138-0.596,0.514-1.071,1.129c-0.139,0.177-0.241,0.266-0.308,0.266c-0.254-0.133-0.417-0.241-0.489-0.324
		c0.172-0.359,0.409-1.079,0.714-2.158C154.227,140.644,154.29,140.431,154.329,140.32z"/>
	<path d="M164.498,151.115c0.071-0.063,0.166-0.108,0.281-0.137c0.283-0.062,0.551-0.172,0.806-0.332
		c0.05-0.133,0.075-0.58,0.075-1.343c0-1.397-0.031-2.342-0.092-2.834c-0.011-0.088-0.056-0.165-0.133-0.231
		c-0.139-0.072-0.326-0.136-0.564-0.191c-0.11-0.027-0.177-0.088-0.199-0.182l-0.025-0.308c0.41-0.056,0.781-0.195,1.113-0.419
		c0.332-0.225,0.58-0.453,0.746-0.686c0.089-0.127,0.166-0.224,0.232-0.29l0.582-0.017c0.027,0.127,0.041,0.232,0.041,0.315
		c0,0.061-0.003,0.136-0.008,0.224c-0.006,0.194-0.009,0.354-0.009,0.482c0,0.061,0.003,0.29,0.009,0.688
		c0.227-0.388,0.393-0.647,0.498-0.78c0.049-0.061,0.196-0.196,0.439-0.406c0.188-0.139,0.401-0.208,0.639-0.208
		c0.294,0,0.549,0.1,0.764,0.299c0.217,0.199,0.324,0.429,0.324,0.688c0,0.261-0.082,0.494-0.245,0.702
		c-0.163,0.207-0.38,0.312-0.651,0.312c-0.238,0-0.487-0.1-0.747-0.299c-0.155-0.122-0.279-0.184-0.374-0.184l-0.058,0.009
		c-0.116,0.039-0.222,0.144-0.315,0.314c-0.155,0.275-0.232,0.563-0.232,0.86l0.017,0.224c0.022,0.408,0.039,1.364,0.05,2.87
		c0.017,0.138,0.069,0.276,0.158,0.414c0.1,0.077,0.2,0.132,0.303,0.165s0.28,0.062,0.535,0.084s0.409,0.057,0.465,0.104
		s0.083,0.125,0.083,0.231c0,0.062-0.017,0.144-0.05,0.244h-0.78l-1.585-0.075c-0.398,0-0.762,0.018-1.088,0.051h-0.141
		c-0.039,0-0.327,0.014-0.863,0.041c-0.018-0.092-0.025-0.16-0.025-0.206C164.473,151.267,164.48,151.201,164.498,151.115z"/>
	<path d="M170.283,151.534l-0.017-0.54l0.938-0.124c0.138-0.039,0.233-0.096,0.286-0.17c0.053-0.075,0.079-0.242,0.079-0.503v-0.091
		c0-0.066,0.004-0.187,0.012-0.361c0.009-0.174,0.013-0.327,0.013-0.46c0-0.105-0.009-0.308-0.024-0.606l0.012-0.415l-0.012-0.391
		l0.024-1.353c0-0.172-0.017-0.349-0.05-0.531c-0.062-0.083-0.173-0.155-0.335-0.216c-0.161-0.061-0.442-0.105-0.844-0.133v-0.465
		c0.57-0.033,1.071-0.152,1.503-0.357c0.293-0.133,0.611-0.367,0.954-0.705h0.556c0.022,0.687,0.033,1.577,0.033,2.673l-0.058,3.387
		c0,0.232,0.011,0.442,0.033,0.631c0.172,0.061,0.451,0.122,0.839,0.183c0.148,0.022,0.268,0.05,0.356,0.083l-0.017,0.456
		c-0.149,0.006-0.26,0.009-0.331,0.009c-0.083,0-0.21-0.006-0.382-0.017c-0.563-0.027-1.317-0.041-2.262-0.041
		c-0.271,0-0.532,0.009-0.787,0.028C170.551,151.524,170.377,151.534,170.283,151.534z M171.445,141.631
		c0-0.299,0.097-0.543,0.291-0.734c0.193-0.19,0.442-0.286,0.746-0.286c0.327,0,0.598,0.101,0.814,0.303
		c0.215,0.202,0.323,0.431,0.323,0.685c0,0.188-0.043,0.377-0.129,0.564c-0.086,0.188-0.221,0.34-0.406,0.453
		s-0.375,0.17-0.569,0.17c-0.266,0-0.51-0.113-0.734-0.34C171.558,142.218,171.445,141.947,171.445,141.631z"/>
	<path d="M174.773,155.751v-0.374c0.1-0.061,0.172-0.102,0.217-0.124l0.639-0.232c0.266-0.104,0.415-0.188,0.448-0.248
		c0.089-0.166,0.127-0.459,0.116-0.88l-0.059-3.301l-0.082-4.105c-0.018-0.299-0.081-0.512-0.191-0.639s-0.404-0.26-0.88-0.398
		l-0.009-0.432c0.543-0.104,0.999-0.234,1.37-0.39c0.271-0.11,0.64-0.321,1.104-0.631l0.423-0.017l0.009,0.232l-0.009,0.896
		c0,0.033,0.003,0.116,0.009,0.249c0.48-0.293,0.877-0.487,1.187-0.581c0.454-0.133,0.954-0.199,1.503-0.199
		c0.564,0,1.064,0.144,1.502,0.432c0.033,0.022,0.08,0.053,0.141,0.092c0.277,0.199,0.479,0.39,0.606,0.572
		c0.276,0.393,0.476,0.78,0.598,1.162c0.094,0.288,0.142,0.647,0.142,1.079c0,0.575-0.075,1.063-0.225,1.461s-0.406,0.8-0.771,1.204
		c-0.365,0.403-0.757,0.691-1.175,0.863c-0.418,0.171-0.856,0.257-1.315,0.257c-0.454,0-0.778-0.027-0.972-0.083
		c-0.371-0.105-0.739-0.26-1.104-0.465c-0.016,0.089-0.024,0.149-0.024,0.183l0.024,0.224c0.006,0.062,0.009,0.136,0.009,0.225
		c0,0.039-0.006,0.258-0.017,0.656l0.033,1.51c0,0.033-0.006,0.145-0.017,0.332v0.092c0,0.205,0.015,0.354,0.043,0.448
		c0.023,0.056,0.072,0.116,0.147,0.183c0.056,0.022,0.108,0.047,0.158,0.074c0.172,0.033,0.322,0.066,0.452,0.1
		s0.268,0.062,0.411,0.084c0.05,0.061,0.074,0.141,0.074,0.24c0,0.061-0.002,0.149-0.008,0.266h-0.149
		c-0.322,0-0.547-0.006-0.674-0.017l-1.256-0.108h-0.308l-0.291-0.008l-0.291,0.025l-0.449,0.024
		c-0.166,0.006-0.35,0.02-0.549,0.042c-0.199,0.021-0.344,0.033-0.433,0.033L174.773,155.751z M177.914,149.816
		c0.022,0.066,0.036,0.115,0.042,0.148c0.061,0.255,0.139,0.435,0.232,0.54c0.172,0.199,0.369,0.332,0.591,0.398
		c0.333,0.094,0.624,0.142,0.874,0.142c0.288,0,0.569-0.062,0.844-0.184c0.274-0.121,0.495-0.284,0.661-0.489
		c0.022-0.027,0.056-0.066,0.1-0.116c0.039-0.089,0.069-0.155,0.092-0.199c0.22-0.432,0.33-0.891,0.33-1.378
		c0-0.896-0.266-1.651-0.798-2.267c-0.372-0.437-0.898-0.655-1.581-0.655c-0.404,0-0.865,0.105-1.381,0.315
		c-0.011,0.216-0.017,0.822-0.017,1.818l0.017,1.602C177.92,149.531,177.918,149.639,177.914,149.816z"/>
	<path d="M187.926,150.846c0-0.219,0.076-0.4,0.229-0.545c0.207-0.195,0.416-0.293,0.627-0.293c0.23,0,0.428,0.082,0.592,0.246
		s0.246,0.363,0.246,0.598c0,0.238-0.077,0.438-0.231,0.598s-0.351,0.24-0.589,0.24c-0.25,0-0.458-0.084-0.624-0.252
		S187.926,151.072,187.926,150.846z M188.975,149.316c-0.082,0.008-0.23,0.014-0.445,0.018l-0.334-2.178
		c-0.117-0.851-0.195-1.469-0.234-1.855c-0.02-0.241-0.029-0.421-0.029-0.538c0-0.027,0.008-0.098,0.023-0.211
		c0.016-0.233,0.075-0.407,0.179-0.521s0.249-0.18,0.437-0.199c0.105-0.023,0.174-0.035,0.205-0.035
		c0.215,0,0.396,0.079,0.542,0.237s0.22,0.381,0.22,0.67c0,0.27-0.031,0.722-0.094,1.358l-0.252,1.891
		C189.129,148.503,189.057,148.957,188.975,149.316z"/>
</g>
</svg>
