<?xml version="1.0" encoding="utf-8"?>
<!-- Generator: Adobe Illustrator 16.0.0, SVG Export Plug-In . SVG Version: 6.00 Build 0)  -->
<!DOCTYPE svg PUBLIC "-//W3C//DTD SVG 1.1//EN" "http://www.w3.org/Graphics/SVG/1.1/DTD/svg11.dtd">
<svg version="1.1" id="Calque_1" xmlns="http://www.w3.org/2000/svg" xmlns:xlink="http://www.w3.org/1999/xlink" x="0px" y="0px"
	 width="200px" height="110px" viewBox="0 0 200 110" enable-background="new 0 0 200 110" xml:space="preserve">
<path fill="#231F20" d="M168.04,23.461"/>
<line fill="none" x1="219.197" y1="851.309" x2="219.197" y2="-388.536"/>
<line fill="none" x1="219.197" y1="851.309" x2="219.197" y2="-388.536"/>
<line fill="none" x1="219.197" y1="851.309" x2="219.197" y2="-388.536"/>
<line fill="none" x1="219.197" y1="851.309" x2="219.197" y2="-388.536"/>
<line fill="none" x1="219.197" y1="851.309" x2="219.197" y2="-388.536"/>
<line fill="none" x1="219.197" y1="-388.541" x2="219.197" y2="851.309"/>
<g>
	<polygon fill="#231F20" points="127.293,18.166 121.772,35.052 142.932,35.052 142.932,91.672 163.393,35.052 179.119,35.052 
		184.553,18.166 	"/>
	<g>
		<polygon fill="#231F20" points="45.557,44.035 38.142,18.166 16.289,18.166 35.375,75.343 		"/>
		<polygon fill="#231F20" points="78.118,18.166 60.653,18.166 36.749,91.672 53.996,91.672 64.838,59 		"/>
		<polygon fill="#231F20" points="99.848,18.166 86.736,64.256 78.532,37.447 69.478,65.287 78.293,91.672 97.266,91.672 
			121.7,18.166 		"/>
	</g>
</g>
</svg>
